<svg xmlns="http://www.w3.org/2000/svg" viewBox="0 0 1223.25 730.79"><defs><style>.cls-1{fill:#fff;stroke-miterlimit:10;stroke-width:5px;}.cls-1,.cls-2{stroke:#fff;}.cls-2,.cls-3,.cls-4,.cls-5,.cls-6{fill:none;stroke-linecap:round;stroke-linejoin:round;stroke-width:15px;}.cls-3{stroke:#f8b7c5;}.cls-4{stroke:#64acdf;}.cls-5{stroke:#ee3838;}.cls-6{stroke:#59ba47;}</style></defs><g id="Stellar"><path class="cls-1" d="M363.56,514.79q-10.68-15.18-10.69-36.56v-3q0-26.25,15.94-41.06t38.81-14.81q17.63,0,28.69,4.87a78.51,78.51,0,0,1,21.56,14.63l-8.62,9.75a76.58,76.58,0,0,0-18.38-12.94q-9-4.31-23.25-4.31-19.87,0-30.93,12.18t-11.07,32.07v2.25q0,19.13,9.94,31.87a254.2,254.2,0,0,0,25.31,27.38l32.25,30.37q18.38,17.63,28.69,36a77.86,77.86,0,0,1,10.31,38.63v5.25a65.49,65.49,0,0,1-2.62,21H455.62a57.52,57.52,0,0,0,3-21.38v-4.87q0-16.87-9-33.57a121.93,121.93,0,0,0-24.75-31.31L391.5,546.11Q374.25,530,363.56,514.79Zm78.19,191.44q-14.62,8.25-34.88,8.25a94.53,94.53,0,0,1-17.62-1.5V699.86a64.07,64.07,0,0,0,17.62,2.25q28.88-.37,42-19.5h15.38A55.51,55.51,0,0,1,441.75,706.23Z" transform="translate(-350.37 -219.75)"/><path class="cls-1" d="M631.12,431H597.37v283.5H584.25V431H520.87V419H630.75v4.88C630.49,424.61,630.62,427,631.12,431Zm30-12v12H640.5V419Z" transform="translate(-350.37 -219.75)"/><path class="cls-1" d="M709.87,605V419h100.5v10.5h-90V605Zm0,109.5V616.61h25.5v10.12h-15v77.63h93.75v10.12Z" transform="translate(-350.37 -219.75)"/><path class="cls-1" d="M862.87,640.61V419h12.37V640.61Zm0,73.87V665h12.37v36.75H976.12v12.75Z" transform="translate(-350.37 -219.75)"/><path class="cls-1" d="M1024.86,640.61V419h12.38V640.61Zm0,73.87V665h12.38v36.75h100.87v12.75Z" transform="translate(-350.37 -219.75)"/><path class="cls-1" d="M1202.23,714.48h-15.37L1285.48,419h3l99.38,295.5h-16.13q-26.62-79.5-42.37-127.87t-29.06-89.07Q1287,456.86,1287,454.61Zm100.5,0h-13.5l-22.5-84h13.5Z" transform="translate(-350.37 -219.75)"/><path class="cls-1" d="M1569.35,714.48h-15l-46.5-84.37q-19.5,7.88-45.37,7.87H1451.6q-3.75,0-15-.37v-12h25.13q46.13,0,69.75-26.63t23.62-68.25v-4.12q0-42-23.62-68.82T1461.73,431h-12.38V538.23q-6.37,0-12.75-.37V419h25.88q51,0,78.56,30.38t27.56,76.5v5.25q0,31.13-12.75,55.68a90.68,90.68,0,0,1-36.75,38.07Z" transform="translate(-350.37 -219.75)"/></g><g id="Ring"><path class="cls-2" d="M952.76,368.09c16-43.61,36.48-74.33,51.33-93.39,28.61-36.72,46.93-43.94,59.77-46.21,5.85-1,18.83-3.16,32.19,2.73,6.86,3,24,12.64,38.49,64.16,9.61,34.12,11.56,63.55,11.94,91.27a745.24,745.24,0,0,1-5.75,103.78c-4,31.89-15.8,114.06-49.67,219.12,0,0-5.36,15.86-14.84,39.82-14.15,35.74-23.39,59.5-39.57,88.38a455,455,0,0,1-30.3,46.91c-7.86,10.69-14,17.49-26.38,31.09-4.46,4.91-16.79,18.07-32.21,23.66-.52.19-1,.34-1.33.45-5.16,1.65-16.17,5.17-28.6,1.73-16.13-4.46-24.85-17.92-31.72-28.87-11.86-18.9-15.48-36.48-19.61-58.81a314.49,314.49,0,0,1-4.94-43.79" transform="translate(-350.37 -219.75)"/></g><g id="Square"><rect class="cls-3" x="739.21" y="7.5" width="46.74" height="46.74"/></g><g id="Plus"><line class="cls-4" x1="572.24" y1="160.55" x2="627.32" y2="142.59"/><line class="cls-4" x1="609.04" y1="179.61" x2="590.53" y2="123.52"/></g><g id="Circle"><circle class="cls-5" cx="705.74" cy="577.17" r="28.87"/></g><g id="Triangle"><path class="cls-6" d="M873.86,799l13.47-21a16.07,16.07,0,0,0-13.12-24.75l-25.86-.66a16.07,16.07,0,0,0-14.36,24l12.38,21.66A16.08,16.08,0,0,0,873.86,799Z" transform="translate(-350.37 -219.75)"/></g></svg>